<svg width="170" height="170" viewBox="0 0 170 170" fill="none" xmlns="http://www.w3.org/2000/svg">
<path d="M0 70C0 31.3401 31.3401 0 70 0H100C138.66 0 170 31.3401 170 70V100C170 138.66 138.66 170 100 170H70C31.3401 170 0 138.66 0 100V70Z" fill="white"/>
<path d="M20 40C20 28.9543 28.9543 20 40 20H130C141.046 20 150 28.9543 150 40V130C150 141.046 141.046 150 130 150H40C28.9543 150 20 141.046 20 130V40Z" fill="white"/>
<path d="M28 46.382C28 36.3846 36.1045 28.2801 46.1019 28.2801C56.0993 28.2801 64.2038 36.3846 64.2038 46.382V124.469C64.2038 134.466 56.0993 142.571 46.1019 142.571C36.1045 142.571 28 134.466 28 124.469V46.382Z" fill="#002351"/>
<path d="M143 46.027C143 36.2257 135.054 28.2801 125.253 28.2801C115.452 28.2801 107.506 36.2257 107.506 46.027V124.824C107.506 134.625 115.452 142.571 125.253 142.571C135.054 142.571 143 134.625 143 124.824V46.027Z" fill="#002351"/>
<path d="M33.4695 58.3429C26.5281 51.4015 26.5281 40.1474 33.4695 33.206C40.4109 26.2647 51.665 26.2647 58.6064 33.206L98.0713 72.671C105.013 79.6123 105.013 90.8665 98.0713 97.8078C91.1299 104.749 79.8758 104.749 72.9344 97.8078L33.4695 58.3429Z" fill="#001AC4"/>
<path d="M137.531 58.3429C144.472 51.4015 144.472 40.1474 137.53 33.206C130.589 26.2647 119.335 26.2647 112.394 33.206L72.9287 72.671C65.9873 79.6123 65.9873 90.8665 72.9287 97.8078C79.8701 104.749 91.1242 104.749 98.0656 97.8078L137.531 58.3429Z" fill="#001AC4"/>
</svg>
